<?xml version="1.0" standalone="no"?><!DOCTYPE svg PUBLIC "-//W3C//DTD SVG 1.1//EN" "http://www.w3.org/Graphics/SVG/1.1/DTD/svg11.dtd"><svg t="1764080411419" class="icon" viewBox="0 0 1024 1024" version="1.1" xmlns="http://www.w3.org/2000/svg" p-id="66891" xmlns:xlink="http://www.w3.org/1999/xlink" width="256" height="256"><path d="M1023.127082 517.036066L655.796459 884.400262l-82.944-82.944L857.222295 517.036066 643.944918 303.758689 454.353836 493.34977l35.537836 35.554623-82.927213 82.927214-118.51541-118.481837L643.944918 137.870689 1023.127082 517.036066z" fill="#3A453F" p-id="66892"></path><path d="M15.930754 505.201311L383.24459 137.870689l82.927213 82.927213-284.369836 284.403409 213.277377 213.294164L584.687213 528.904393l-35.537836-35.554623 82.927213-82.944 116.819935 116.803148-355.479082 355.479082L15.930754 505.201311z" fill="#47C788" p-id="66893"></path><path d="M430.415738 90.699541L513.594754 7.520525l82.944 82.944-82.927213 82.944-83.195803-82.708984z" fill="#47C788" p-id="66894"></path><path d="M442.502295 931.789639l82.927213-82.944 82.960787 82.927213-82.944 82.960787-82.944-82.944z" fill="#3A453F" p-id="66895"></path></svg>